<svg width="93" height="431" viewBox="0 0 93 431" fill="none" xmlns="http://www.w3.org/2000/svg">
<path opacity="0.1" d="M21.9733 89.79C16.9065 136.9 20.9888 230.806 39.9376 307.721C48.5575 334.647 65.2805 399.377 63.2141 442.879" stroke="black" stroke-width="16"/>
<path d="M22.2405 91.2166C20.0533 138.548 29.8494 232.03 53.4491 307.648C63.6935 333.999 84.3292 397.59 84.917 441.137" stroke="black" stroke-width="16"/>
<g opacity="0.5" filter="url(#filter0_f_35_162)">
<path d="M17.2405 91.2166C15.0533 138.548 24.8494 232.03 48.4491 307.648C58.6935 333.999 79.3292 397.59 79.917 441.137" stroke="white" stroke-width="8"/>
</g>
<path d="M36.1716 0H2C0.895431 0 0 0.895431 0 2V36.1716C0 37.9534 2.15428 38.8457 3.41421 37.5858L37.5858 3.41421C38.8457 2.15428 37.9534 0 36.1716 0Z" fill="black"/>
<path d="M36.1716 0H2C0.895431 0 0 0.895431 0 2V36.1716C0 37.9534 2.15428 38.8457 3.41421 37.5858L37.5858 3.41421C38.8457 2.15428 37.9534 0 36.1716 0Z" fill="url(#paint0_linear_35_162)" fill-opacity="0.3"/>
<path d="M0 41L37.5858 3.41422C38.8457 2.15428 41 3.04662 41 4.82843V41V61.5C41 62.6046 40.1046 63.5 39 63.5H37C35.8954 63.5 35 64.3954 35 65.5V68.5C35 69.6046 35.8954 70.5 37 70.5H39C40.1046 70.5 41 71.3954 41 72.5C41 73.6046 40.1046 74.5 39 74.5H37C35.8954 74.5 35 75.3954 35 76.5V78.25C35 79.2165 35.7835 80 36.75 80C37.7165 80 38.5 80.7835 38.5 81.75V83.25C38.5 84.2165 37.7165 85 36.75 85C35.7835 85 35 85.7835 35 86.75V88.75C35 89.7165 35.7835 90.5 36.75 90.5C37.7165 90.5 38.5 91.2835 38.5 92.25V96.5C38.5 97.6046 37.6046 98.5 36.5 98.5H28.5H9.5C8.39543 98.5 7.5 97.6046 7.5 96.5V92.5C7.5 91.3954 8.39543 90.5 9.5 90.5C10.6046 90.5 11.5 89.6046 11.5 88.5V87C11.5 85.8954 10.6046 85 9.5 85C8.39543 85 7.5 84.1046 7.5 83V82C7.5 80.8954 8.39543 80 9.5 80C10.6046 80 11.5 79.1046 11.5 78V76.5C11.5 75.3954 10.6046 74.5 9.5 74.5C8.39543 74.5 7.5 73.6046 7.5 72.5C7.5 71.3954 8.39543 70.5 9.5 70.5C10.6046 70.5 11.5 69.6046 11.5 68.5V65.5C11.5 64.3954 10.6046 63.5 9.5 63.5H4.75103C3.74863 63.5 2.90106 62.7579 2.76858 61.7643L0 41Z" fill="black"/>
<path d="M0 41L37.5858 3.41422C38.8457 2.15428 41 3.04662 41 4.82843V41V61.5C41 62.6046 40.1046 63.5 39 63.5H37C35.8954 63.5 35 64.3954 35 65.5V68.5C35 69.6046 35.8954 70.5 37 70.5H39C40.1046 70.5 41 71.3954 41 72.5C41 73.6046 40.1046 74.5 39 74.5H37C35.8954 74.5 35 75.3954 35 76.5V78.25C35 79.2165 35.7835 80 36.75 80C37.7165 80 38.5 80.7835 38.5 81.75V83.25C38.5 84.2165 37.7165 85 36.75 85C35.7835 85 35 85.7835 35 86.75V88.75C35 89.7165 35.7835 90.5 36.75 90.5C37.7165 90.5 38.5 91.2835 38.5 92.25V96.5C38.5 97.6046 37.6046 98.5 36.5 98.5H28.5H9.5C8.39543 98.5 7.5 97.6046 7.5 96.5V92.5C7.5 91.3954 8.39543 90.5 9.5 90.5C10.6046 90.5 11.5 89.6046 11.5 88.5V87C11.5 85.8954 10.6046 85 9.5 85C8.39543 85 7.5 84.1046 7.5 83V82C7.5 80.8954 8.39543 80 9.5 80C10.6046 80 11.5 79.1046 11.5 78V76.5C11.5 75.3954 10.6046 74.5 9.5 74.5C8.39543 74.5 7.5 73.6046 7.5 72.5C7.5 71.3954 8.39543 70.5 9.5 70.5C10.6046 70.5 11.5 69.6046 11.5 68.5V65.5C11.5 64.3954 10.6046 63.5 9.5 63.5H4.75103C3.74863 63.5 2.90106 62.7579 2.76858 61.7643L0 41Z" fill="url(#paint1_linear_35_162)" fill-opacity="0.3"/>
<defs>
<filter id="filter0_f_35_162" x="10.9429" y="89.032" width="74.9739" height="354.159" filterUnits="userSpaceOnUse" color-interpolation-filters="sRGB">
<feFlood flood-opacity="0" result="BackgroundImageFix"/>
<feBlend mode="normal" in="SourceGraphic" in2="BackgroundImageFix" result="shape"/>
<feGaussianBlur stdDeviation="1" result="effect1_foregroundBlur_35_162"/>
</filter>
<linearGradient id="paint0_linear_35_162" x1="20.5" y1="0" x2="20.5" y2="41" gradientUnits="userSpaceOnUse">
<stop stop-color="white"/>
<stop offset="1" stop-color="white" stop-opacity="0"/>
</linearGradient>
<linearGradient id="paint1_linear_35_162" x1="41" y1="20.5" x2="0" y2="20.5" gradientUnits="userSpaceOnUse">
<stop stop-color="white"/>
<stop offset="1" stop-color="white" stop-opacity="0"/>
</linearGradient>
</defs>
</svg>
